<mxfile host="app.diagrams.net" agent="Mozilla/5.0 (Windows NT 10.0; Win64; x64) AppleWebKit/537.36 (KHTML, like Gecko) Chrome/131.0.0.0 Safari/537.36 Edg/131.0.0.0" version="24.8.4">
  <diagram name="第 1 页" id="N0TqZqW99RqQm85JOutF">
    <mxGraphModel dx="956" dy="515" grid="1" gridSize="10" guides="1" tooltips="1" connect="1" arrows="1" fold="1" page="1" pageScale="1" pageWidth="413" pageHeight="583" math="0" shadow="0">
      <root>
        <mxCell id="0" />
        <mxCell id="1" parent="0" />
        <mxCell id="Yoh16GQiAsYlW4kxsc5R-3" value="" style="edgeStyle=orthogonalEdgeStyle;rounded=0;orthogonalLoop=1;jettySize=auto;html=1;shape=flexArrow;strokeWidth=1;" edge="1" parent="1" source="Yoh16GQiAsYlW4kxsc5R-1" target="Yoh16GQiAsYlW4kxsc5R-2">
          <mxGeometry relative="1" as="geometry">
            <Array as="points">
              <mxPoint x="300" y="140" />
            </Array>
          </mxGeometry>
        </mxCell>
        <mxCell id="Yoh16GQiAsYlW4kxsc5R-4" value="质心提取" style="edgeLabel;html=1;align=center;verticalAlign=middle;resizable=0;points=[];" vertex="1" connectable="0" parent="Yoh16GQiAsYlW4kxsc5R-3">
          <mxGeometry x="-0.25" y="4" relative="1" as="geometry">
            <mxPoint y="4" as="offset" />
          </mxGeometry>
        </mxCell>
        <mxCell id="Yoh16GQiAsYlW4kxsc5R-1" value="星图" style="whiteSpace=wrap;html=1;" vertex="1" parent="1">
          <mxGeometry x="10" y="110" width="120" height="60" as="geometry" />
        </mxCell>
        <mxCell id="Yoh16GQiAsYlW4kxsc5R-8" value="" style="edgeStyle=orthogonalEdgeStyle;rounded=0;orthogonalLoop=1;jettySize=auto;html=1;shape=flexArrow;" edge="1" parent="1" source="Yoh16GQiAsYlW4kxsc5R-2" target="Yoh16GQiAsYlW4kxsc5R-7">
          <mxGeometry relative="1" as="geometry" />
        </mxCell>
        <mxCell id="Yoh16GQiAsYlW4kxsc5R-13" value="角距计算" style="edgeLabel;html=1;align=center;verticalAlign=middle;resizable=0;points=[];" vertex="1" connectable="0" parent="Yoh16GQiAsYlW4kxsc5R-8">
          <mxGeometry x="-0.2857" y="1" relative="1" as="geometry">
            <mxPoint as="offset" />
          </mxGeometry>
        </mxCell>
        <mxCell id="Yoh16GQiAsYlW4kxsc5R-2" value="质心数据" style="whiteSpace=wrap;html=1;" vertex="1" parent="1">
          <mxGeometry x="240" y="110" width="120" height="60" as="geometry" />
        </mxCell>
        <mxCell id="Yoh16GQiAsYlW4kxsc5R-10" value="" style="edgeStyle=orthogonalEdgeStyle;rounded=0;orthogonalLoop=1;jettySize=auto;html=1;shape=flexArrow;" edge="1" parent="1" source="Yoh16GQiAsYlW4kxsc5R-7" target="Yoh16GQiAsYlW4kxsc5R-9">
          <mxGeometry relative="1" as="geometry" />
        </mxCell>
        <mxCell id="Yoh16GQiAsYlW4kxsc5R-15" value="角距细分" style="edgeLabel;html=1;align=center;verticalAlign=middle;resizable=0;points=[];" vertex="1" connectable="0" parent="Yoh16GQiAsYlW4kxsc5R-10">
          <mxGeometry x="-0.2381" y="1" relative="1" as="geometry">
            <mxPoint as="offset" />
          </mxGeometry>
        </mxCell>
        <mxCell id="Yoh16GQiAsYlW4kxsc5R-7" value="距离矩阵" style="whiteSpace=wrap;html=1;" vertex="1" parent="1">
          <mxGeometry x="440" y="110" width="120" height="60" as="geometry" />
        </mxCell>
        <mxCell id="Yoh16GQiAsYlW4kxsc5R-9" value="观测星模式向量" style="whiteSpace=wrap;html=1;" vertex="1" parent="1">
          <mxGeometry x="640" y="110" width="120" height="60" as="geometry" />
        </mxCell>
        <mxCell id="Yoh16GQiAsYlW4kxsc5R-16" value="" style="whiteSpace=wrap;html=1;" vertex="1" parent="1">
          <mxGeometry x="240" y="220" width="120" height="60" as="geometry" />
        </mxCell>
        <mxCell id="Yoh16GQiAsYlW4kxsc5R-17" value="RAM #1" style="text;html=1;align=center;verticalAlign=middle;resizable=0;points=[];autosize=1;strokeColor=none;fillColor=none;" vertex="1" parent="1">
          <mxGeometry x="465" y="70" width="70" height="30" as="geometry" />
        </mxCell>
        <mxCell id="Yoh16GQiAsYlW4kxsc5R-18" value="RAM #2" style="text;html=1;align=center;verticalAlign=middle;resizable=0;points=[];autosize=1;strokeColor=none;fillColor=none;" vertex="1" parent="1">
          <mxGeometry x="665" y="70" width="70" height="30" as="geometry" />
        </mxCell>
      </root>
    </mxGraphModel>
  </diagram>
</mxfile>
